<svg width="112" height="48" viewBox="0 0 112 48" fill="none" xmlns="http://www.w3.org/2000/svg">
<path d="M52.3169 38.936L48.9249 34.872C47.9862 35.1067 47.0262 35.224 46.0449 35.224C43.9542 35.224 42.0342 34.7333 40.2849 33.752C38.5355 32.7707 37.1489 31.416 36.1249 29.688C35.1009 27.9387 34.5889 25.9653 34.5889 23.768C34.5889 21.592 35.1009 19.64 36.1249 17.912C37.1489 16.1627 38.5355 14.7973 40.2849 13.816C42.0342 12.8347 43.9542 12.344 46.0449 12.344C48.1569 12.344 50.0769 12.8347 51.8049 13.816C53.5542 14.7973 54.9302 16.1627 55.9329 17.912C56.9569 19.64 57.4689 21.592 57.4689 23.768C57.4689 25.752 57.0422 27.5653 56.1889 29.208C55.3569 30.8293 54.2155 32.152 52.7649 33.176L57.8849 38.936H52.3169ZM39.1969 23.768C39.1969 25.2613 39.4849 26.5733 40.0609 27.704C40.6369 28.8347 41.4369 29.7093 42.4609 30.328C43.5062 30.9253 44.7009 31.224 46.0449 31.224C47.3889 31.224 48.5729 30.9253 49.5969 30.328C50.6209 29.7093 51.4209 28.8347 51.9969 27.704C52.5729 26.5733 52.8609 25.2613 52.8609 23.768C52.8609 22.2747 52.5729 20.9733 51.9969 19.864C51.4209 18.7333 50.6209 17.8693 49.5969 17.272C48.5729 16.6747 47.3889 16.376 46.0449 16.376C44.7009 16.376 43.5062 16.6747 42.4609 17.272C41.4369 17.8693 40.6369 18.7333 40.0609 19.864C39.4849 20.9733 39.1969 22.2747 39.1969 23.768ZM77.6004 17.272V35H73.0884V32.76C72.5124 33.528 71.755 34.136 70.8164 34.584C69.899 35.0107 68.8964 35.224 67.8084 35.224C66.4217 35.224 65.195 34.936 64.1284 34.36C63.0617 33.7627 62.219 32.8987 61.6004 31.768C61.003 30.616 60.7044 29.2507 60.7044 27.672V17.272H65.1844V27.032C65.1844 28.44 65.5364 29.528 66.2404 30.296C66.9444 31.0427 67.9044 31.416 69.1204 31.416C70.3577 31.416 71.3284 31.0427 72.0324 30.296C72.7364 29.528 73.0884 28.44 73.0884 27.032V17.272H77.6004ZM84.2926 15.16C83.5033 15.16 82.8419 14.9147 82.3086 14.424C81.7966 13.912 81.5406 13.2827 81.5406 12.536C81.5406 11.7893 81.7966 11.1707 82.3086 10.68C82.8419 10.168 83.5033 9.91199 84.2926 9.91199C85.0819 9.91199 85.7326 10.168 86.2446 10.68C86.7779 11.1707 87.0446 11.7893 87.0446 12.536C87.0446 13.2827 86.7779 13.912 86.2446 14.424C85.7326 14.9147 85.0819 15.16 84.2926 15.16ZM86.5006 17.272V35H82.0206V17.272H86.5006ZM95.4069 11.32V35H90.9269V11.32H95.4069ZM104.313 11.32V35H99.8331V11.32H104.313Z" fill="white"/>
<path d="M10 34C15.5228 34 20 29.5228 20 24C20 18.4772 15.5228 14 10 14C4.47715 14 0 18.4772 0 24C0 29.5228 4.47715 34 10 34Z" fill="white"/>
</svg>
