<svg width="112" height="48" viewBox="0 0 112 48" fill="none" xmlns="http://www.w3.org/2000/svg">
<path d="M52.3168 38.936L48.9248 34.872C47.9861 35.1067 47.0261 35.224 46.0448 35.224C43.9541 35.224 42.0341 34.7333 40.2848 33.752C38.5354 32.7707 37.1488 31.416 36.1248 29.688C35.1008 27.9387 34.5888 25.9653 34.5888 23.768C34.5888 21.592 35.1008 19.64 36.1248 17.912C37.1488 16.1627 38.5354 14.7973 40.2848 13.816C42.0341 12.8347 43.9541 12.344 46.0448 12.344C48.1568 12.344 50.0768 12.8347 51.8048 13.816C53.5541 14.7973 54.9301 16.1627 55.9328 17.912C56.9568 19.64 57.4688 21.592 57.4688 23.768C57.4688 25.752 57.0421 27.5653 56.1888 29.208C55.3568 30.8293 54.2154 32.152 52.7648 33.176L57.8848 38.936H52.3168ZM39.1968 23.768C39.1968 25.2613 39.4848 26.5733 40.0608 27.704C40.6368 28.8347 41.4368 29.7093 42.4608 30.328C43.5061 30.9253 44.7008 31.224 46.0448 31.224C47.3888 31.224 48.5728 30.9253 49.5968 30.328C50.6208 29.7093 51.4208 28.8347 51.9968 27.704C52.5728 26.5733 52.8608 25.2613 52.8608 23.768C52.8608 22.2747 52.5728 20.9733 51.9968 19.864C51.4208 18.7333 50.6208 17.8693 49.5968 17.272C48.5728 16.6747 47.3888 16.376 46.0448 16.376C44.7008 16.376 43.5061 16.6747 42.4608 17.272C41.4368 17.8693 40.6368 18.7333 40.0608 19.864C39.4848 20.9733 39.1968 22.2747 39.1968 23.768ZM77.6003 17.272V35H73.0883V32.76C72.5123 33.528 71.7549 34.136 70.8163 34.584C69.8989 35.0107 68.8963 35.224 67.8083 35.224C66.4216 35.224 65.1949 34.936 64.1283 34.36C63.0616 33.7627 62.2189 32.8987 61.6003 31.768C61.0029 30.616 60.7043 29.2507 60.7043 27.672V17.272H65.1843V27.032C65.1843 28.44 65.5363 29.528 66.2403 30.296C66.9443 31.0427 67.9043 31.416 69.1203 31.416C70.3576 31.416 71.3283 31.0427 72.0323 30.296C72.7363 29.528 73.0883 28.44 73.0883 27.032V17.272H77.6003ZM84.2925 15.16C83.5032 15.16 82.8418 14.9147 82.3085 14.424C81.7965 13.912 81.5405 13.2827 81.5405 12.536C81.5405 11.7893 81.7965 11.1707 82.3085 10.68C82.8418 10.168 83.5032 9.912 84.2925 9.912C85.0818 9.912 85.7325 10.168 86.2445 10.68C86.7778 11.1707 87.0445 11.7893 87.0445 12.536C87.0445 13.2827 86.7778 13.912 86.2445 14.424C85.7325 14.9147 85.0818 15.16 84.2925 15.16ZM86.5005 17.272V35H82.0205V17.272H86.5005ZM95.4068 11.32V35H90.9268V11.32H95.4068ZM104.313 11.32V35H99.833V11.32H104.313Z" fill="black"/>
<circle cx="10" cy="24" r="10" fill="black"/>
</svg>
