<svg width="1312" height="1033" viewBox="0 0 1312 1033" fill="none" xmlns="http://www.w3.org/2000/svg">
<path d="M28.4006 912.2C77.6006 914.4 126.801 915.5 176.001 915.4C177.901 915.4 177.901 912.4 176.001 912.4C126.801 912.5 77.6006 911.4 28.4006 909.2C26.5006 909.1 26.5006 912.1 28.4006 912.2Z" fill="#E8E8E8"/>
<path d="M179 837.8C186.7 866.7 193.9 895.8 200.5 925C200.9 926.9 203.8 926.1 203.4 924.2C196.7 895 189.6 865.9 181.9 837C181.4 835.2 178.5 836 179 837.8Z" fill="#E8E8E8"/>
<path d="M313 840C310.2 867.5 307.4 895.1 304.7 922.6C304.5 924.5 307.5 924.5 307.7 922.6C310.5 895.1 313.3 867.5 316 840C316.1 838.1 313.1 838.1 313 840Z" fill="#E8E8E8"/>
<path d="M201.3 927.7C218.8 930.8 236.5 932.2 254.3 931.7C271.3 931.2 289.9 929.9 306.1 924.5C307.9 923.9 307.1 921 305.3 921.6C289.2 926.9 271.1 928.2 254.3 928.7C236.8 929.2 219.3 927.8 202.1 924.8C200.2 924.4 199.4 927.3 201.3 927.7Z" fill="#E8E8E8"/>
<path d="M180.201 838.8C200.901 844.6 223.401 844.7 244.801 844.8C267.801 845 290.801 843.7 313.601 841.1C315.501 840.9 315.501 837.9 313.601 838.1C291.401 840.7 269.101 841.9 246.801 841.8C225.101 841.7 202.101 841.7 181.001 835.9C179.101 835.4 178.301 838.3 180.201 838.8Z" fill="#E8E8E8"/>
<path d="M171.6 828.5C171.8 830.4 172 832.4 172.2 834.3C172.3 835.5 172.3 837 172.8 838.1C174 840.7 178 839.8 180.3 839.8C182.2 839.8 182.2 836.8 180.3 836.8C179.2 836.8 178.1 836.8 176.9 836.8C175.4 836.8 175.4 836.5 175.3 835C175.1 832.8 174.9 830.7 174.7 828.5C174.4 826.6 171.4 826.5 171.6 828.5Z" fill="#E8E8E8"/>
<path d="M173.6 830.1C198.6 833 223.7 834.4 248.9 834.6C261.3 834.7 273.7 834.5 286.2 834.1C292.4 833.9 298.6 833.6 304.8 833.3C307.7 833.2 311.7 832.2 314.6 832.8C318.1 833.4 317.9 836.4 318.3 839.5C318.6 838.9 319 838.3 319.3 837.7C318 837.7 316.7 837.7 315.4 837.7C313.5 837.3 312.7 840.2 314.6 840.6C316.6 841 318.1 841 320 840.6C320.9 840.4 321.2 839.5 321 838.8C320.5 835.3 320.9 830.9 316.7 830C314.2 829.4 311.1 830.1 308.5 830.2C305.2 830.4 302 830.5 298.7 830.7C284.7 831.3 270.6 831.7 256.5 831.7C228.7 831.7 201 830.4 173.4 827.1C171.7 826.9 171.7 829.9 173.6 830.1Z" fill="#E8E8E8"/>
<path d="M195.301 902.8C203.301 913.3 212.701 922.4 223.301 930.2C224.901 931.3 226.401 928.7 224.801 927.6C214.601 920.1 205.501 911.3 197.801 901.2C196.701 899.7 194.101 901.2 195.301 902.8Z" fill="#E8E8E8"/>
<path d="M188.601 872.3C204.201 894.8 223.401 914.5 245.601 930.6C247.201 931.7 248.701 929.1 247.101 928C225.401 912.2 206.501 892.8 191.201 870.8C190.101 869.2 187.501 870.7 188.601 872.3Z" fill="#E8E8E8"/>
<path d="M182.501 845.5C209.501 877.5 239.501 907.4 275.301 929.6C276.901 930.6 278.501 928 276.801 927C241.201 905 211.401 875.3 184.601 843.4C183.401 841.9 181.301 844.1 182.501 845.5Z" fill="#E8E8E8"/>
<path d="M211.2 843.8C236.9 873.7 265.4 902.1 297.2 925.5C298.8 926.6 300.3 924 298.7 922.9C267.1 899.7 238.8 871.3 213.3 841.7C212 840.2 209.9 842.3 211.2 843.8Z" fill="#E8E8E8"/>
<path d="M244 845.9C261.4 867.2 281.4 886.2 303.6 902.5C305.2 903.6 306.7 901 305.1 899.9C283.1 883.8 263.3 864.9 246.1 843.8C244.9 842.3 242.8 844.4 244 845.9Z" fill="#E8E8E8"/>
<path d="M270.801 844.8C282.001 857.4 294.801 868.2 309.001 877.3C310.601 878.3 312.101 875.7 310.501 874.7C296.501 865.8 283.901 855 272.901 842.7C271.601 841.2 269.501 843.3 270.801 844.8Z" fill="#E8E8E8"/>
<path d="M132.4 680C138.9 693.7 143.3 708.1 145.8 723.1C145.9 723.8 146.6 724.2 147.2 724.2C147.8 724.2 151 724.1 151.2 725.1C151.3 725.5 149.3 727.8 149.1 728.3C148.5 729.9 148.5 731.8 149.1 733.4C149.9 735.3 151.4 736.6 153.2 737.3C153.8 737.6 154.5 737.7 155.2 737.8C155.8 737.9 156.4 737.9 157 737.8C157.8 737.7 157.7 737.8 156.8 738.2C155.8 739.7 154.4 739.9 154 742.1C153.7 744.2 154.7 746.2 155.5 748C158.8 755 160.7 762.4 163.4 769.7C172.7 794.5 190.5 815 210.6 831.9C212.1 833.1 214.2 831 212.7 829.8C192 812.4 173.6 791.1 164.9 765C163.8 761.6 162.8 758.2 161.6 754.9C160.6 752 158.7 749 157.8 746.1C156.8 744.5 156.9 742.7 158.2 740.9C158.6 740.6 159 740.3 159.4 740C159.7 739.5 160.3 739.2 160.6 738.6C161 737.5 160.7 736.5 159.9 735.7C158.6 734.4 156.6 735.1 154.9 734.6C148.4 732.7 153.7 728.3 154.2 725.1C154.9 720.9 149.7 721.4 146.9 721.2C147.4 721.6 147.9 721.9 148.3 722.3C145.8 707.1 141.2 692.4 134.6 678.5C134.2 676.7 131.6 678.2 132.4 680Z" fill="#E8E8E8"/>
<path d="M133.5 679.3C166 688 194.5 710.1 215.2 736.3C237.2 764.1 250.9 797.5 258.3 832C258.7 833.9 261.6 833.1 261.2 831.2C253.7 796.2 239.7 762.4 217.4 734.2C196.4 707.7 167.4 685.3 134.4 676.5C132.4 675.9 131.6 678.8 133.5 679.3Z" fill="#E8E8E8"/>
<path d="M145.3 691.7C185.1 730.4 215.8 777.9 234.7 830.2C235.4 832 238.3 831.2 237.6 829.4C218.5 776.7 187.6 728.7 147.4 689.6C146.1 688.2 143.9 690.3 145.3 691.7Z" fill="#E8E8E8"/>
<path d="M163 754.6C171.4 755.5 179.6 757.4 187.4 760.5C195 763.5 203.3 767.3 208.1 774.2C209.2 775.8 211.8 774.3 210.7 772.7C205.9 765.8 198.4 761.9 190.8 758.7C181.9 754.9 172.6 752.6 162.9 751.6C161.1 751.4 161.1 754.4 163 754.6Z" fill="#E8E8E8"/>
<path d="M177.9 699.8C177.8 711.3 179.7 722.6 183.4 733.5C184 735.3 186.9 734.5 186.3 732.7C182.7 722.1 180.9 711.1 180.9 699.8C180.9 697.9 177.9 697.9 177.9 699.8Z" fill="#E8E8E8"/>
<path d="M232.8 754.2C237.7 735.9 254 725 267.9 713.8C282.7 701.9 297 689.2 310.6 676C309.8 675.5 308.9 675 308.1 674.5C303.6 686.6 302.7 699.3 302.9 712.1C303.1 724.9 306 739.6 301.9 752C302.4 751.6 302.9 751.3 303.3 750.9C300.1 751.1 296.9 751.4 293.7 751.6C292.7 751.7 291.7 752.9 292.4 753.9C294.7 757 297.4 758 297.3 762.6C297.3 765.8 296.5 769.5 295.4 772.5C294.3 775.6 291.4 777.7 290.4 780.6C289.6 783.2 291.6 785.4 291.6 788C291.7 792.3 288.6 795.9 286.4 799.3C284.3 802.5 282.4 805.8 280.7 809.2C277.3 815.9 274.6 822.8 272.6 830C272.1 831.9 275 832.7 275.5 830.8C278 821.9 281.6 813.3 286.3 805.3C289.5 799.9 295.5 793.6 294.8 786.8C294.5 784.1 293.1 783.3 294.3 780.2C294.4 780.1 296.2 777.7 296.3 777.5C298.2 774.4 299.1 770.9 299.7 767.4C300.1 764.8 300.9 761.6 300.5 759C299.9 755.3 297.1 755 295 752.2C294.6 753 294.1 753.7 293.7 754.5C296.9 754.3 300.1 754 303.3 753.8C304 753.7 304.5 753.4 304.7 752.7C308.5 741.1 306.2 727.6 305.8 715.6C305.4 701.9 305.9 688.1 310.8 675.1C311.4 673.6 309.3 672.7 308.3 673.6C293.8 687.7 278.6 701.2 262.7 713.8C249.1 724.6 234.4 735.6 229.7 753.2C229.4 755.3 232.3 756.1 232.8 754.2Z" fill="#E8E8E8"/>
<path d="M299.501 689C289.701 706.1 279.701 723 270.301 740.3C261.501 756.3 253.701 772.9 250.001 790.8C249.601 792.7 252.501 793.5 252.901 791.6C256.701 773.3 264.801 756.5 273.801 740.2C283.001 723.5 292.701 707.1 302.101 690.5C303.001 688.9 300.401 687.3 299.501 689Z" fill="#E8E8E8"/>
<path d="M270 716.8C271.3 722.5 271.9 728.2 271.7 734C271.6 735.9 274.6 735.9 274.7 734C274.9 727.9 274.3 722 272.9 716C272.4 714.1 269.6 714.9 270 716.8Z" fill="#E8E8E8"/>
<path d="M286.3 697.7C287.4 702 287.6 706.2 287.1 710.5C286.9 712.4 289.9 712.4 290.1 710.5C290.7 705.9 290.4 701.4 289.2 696.9C288.7 695.1 285.8 695.9 286.3 697.7Z" fill="#E8E8E8"/>
<path d="M287 717.6C292.9 714.1 299 711 305.3 708.4C307.1 707.7 306.3 704.8 304.5 705.5C297.9 708.2 291.6 711.4 285.4 715C283.8 716 285.3 718.6 287 717.6Z" fill="#E8E8E8"/>
<path d="M261.2 767.8C265 764.6 268.8 761.5 272.7 758.5C276.8 755.3 281.3 751 286.3 749C288.1 748.3 287.3 745.4 285.5 746.1C281 747.8 277.3 751.1 273.5 754.1C268.6 757.9 263.8 761.7 259.1 765.7C257.6 766.9 259.7 769 261.2 767.8Z" fill="#E8E8E8"/>
<path d="M145.401 711.7C152.401 712.4 159.401 713.1 166.401 713.7C168.301 713.9 168.301 710.9 166.401 710.7C159.401 710 152.401 709.3 145.401 708.7C143.501 708.5 143.501 711.5 145.401 711.7Z" fill="#E8E8E8"/>
<path d="M328.9 911.2C454.2 911.2 579.4 911.2 704.7 911.2C740 911.2 775.3 911.2 810.6 911.2C812.5 911.2 812.5 908.2 810.6 908.2C685.3 908.2 560.1 908.2 434.8 908.2C399.5 908.2 364.2 908.2 328.9 908.2C326.9 908.2 326.9 911.2 328.9 911.2Z" fill="#E8E8E8"/>
<path d="M752.7 666.2C752.7 680.8 752.7 695.4 752.7 710C752.7 711.9 755.7 711.9 755.7 710C755.7 695.4 755.7 680.8 755.7 666.2C755.7 664.3 752.7 664.3 752.7 666.2Z" fill="#E8E8E8"/>
<path d="M683.701 716.7C732.201 716.7 780.701 716.7 829.201 716.7C831.101 716.7 831.101 713.7 829.201 713.7C780.701 713.7 732.201 713.7 683.701 713.7C681.801 713.7 681.701 716.7 683.701 716.7Z" fill="#E8E8E8"/>
<path d="M716.301 717.5C716.301 730.1 716.301 742.7 716.301 755.4C716.301 757.3 719.301 757.3 719.301 755.4C719.301 742.8 719.301 730.2 719.301 717.5C719.301 715.5 716.301 715.5 716.301 717.5Z" fill="#E8E8E8"/>
<path d="M791.301 716.7C791.301 727.8 791.301 739 791.301 750.1C791.301 752 794.301 752 794.301 750.1C794.301 739 794.301 727.8 794.301 716.7C794.301 714.8 791.301 714.8 791.301 716.7Z" fill="#E8E8E8"/>
<path d="M743.8 758.3C780.9 758.3 818 758.3 855.1 758.3C857 758.3 857 755.3 855.1 755.3C818 755.3 780.9 755.3 743.8 755.3C741.9 755.3 741.9 758.3 743.8 758.3Z" fill="#E8E8E8"/>
<path d="M659.901 940.2C741.801 940.2 823.701 940.2 905.601 940.2C907.501 940.2 907.501 937.2 905.601 937.2C823.701 937.2 741.801 937.2 659.901 937.2C658.001 937.2 658.001 940.2 659.901 940.2Z" fill="#E8E8E8"/>
<path d="M998.601 914.3C1079 914.3 1159.5 914.3 1239.9 914.3C1262.5 914.3 1285.1 914.3 1307.7 914.3C1309.6 914.3 1309.6 911.3 1307.7 911.3C1227.3 911.3 1146.8 911.3 1066.4 911.3C1043.8 911.3 1021.2 911.3 998.601 911.3C996.701 911.3 996.701 914.3 998.601 914.3Z" fill="#E8E8E8"/>
<path d="M1.70039 965.5C84.1004 965.5 166.6 965.5 249 965.5C250.9 965.5 250.9 962.5 249 962.5C166.6 962.5 84.1004 962.5 1.70039 962.5C-0.199609 962.5 -0.199609 965.5 1.70039 965.5Z" fill="#E8E8E8"/>
<path d="M167.9 995.5C235.2 995.5 302.5 995.5 369.8 995.5C371.7 995.5 371.7 992.5 369.8 992.5C302.5 992.5 235.2 992.5 167.9 992.5C165.9 992.5 165.9 995.5 167.9 995.5Z" fill="#E8E8E8"/>
<path d="M1191 140.5C1191 112.6 1191 84.8 1191 56.9C1191 55 1188 55 1188 56.9C1188 84.8 1188 112.6 1188 140.5C1188 142.4 1191 142.4 1191 140.5Z" fill="#E8E8E8"/>
<path d="M1190.5 56.3C1226.6 56.3 1262.7 56.3 1298.8 56.3C1300.7 56.3 1300.7 53.3 1298.8 53.3C1262.7 53.3 1226.6 53.3 1190.5 53.3C1188.6 53.3 1188.6 56.3 1190.5 56.3Z" fill="#E8E8E8"/>
<path d="M1297.3 55C1297.1 83.2999 1296.9 111.6 1296.6 139.9C1296.6 141.8 1299.6 141.8 1299.6 139.9C1299.8 111.6 1300 83.2999 1300.3 55C1300.3 53.1 1297.3 53.1 1297.3 55Z" fill="#E8E8E8"/>
<path d="M1191 142C1226.6 142 1262.2 142 1297.8 142C1299.7 142 1299.7 139 1297.8 139C1262.2 139 1226.6 139 1191 139C1189.1 139 1189.1 142 1191 142Z" fill="#E8E8E8"/>
<path d="M1193.9 62.7C1193.9 86.2 1193.9 109.6 1193.9 133.1C1193.9 135 1196.9 135 1196.9 133.1C1196.9 109.6 1196.9 86.2 1196.9 62.7C1196.9 60.8 1193.9 60.8 1193.9 62.7Z" fill="#E8E8E8"/>
<path d="M1196.1 64.2C1227.7 64.2 1259.2 64.2 1290.8 64.2C1292.7 64.2 1292.7 61.2 1290.8 61.2C1259.2 61.2 1227.7 61.2 1196.1 61.2C1194.1 61.2 1194.1 64.2 1196.1 64.2Z" fill="#E8E8E8"/>
<path d="M1289.2 63.4C1289.1 86.4 1289 109.4 1288.9 132.5C1288.9 134.4 1291.9 134.4 1291.9 132.5C1292 109.5 1292.1 86.5 1292.2 63.4C1292.2 61.5 1289.2 61.5 1289.2 63.4Z" fill="#E8E8E8"/>
<path d="M1196.7 135C1227.8 135 1258.9 135 1290 135C1291.9 135 1291.9 132 1290 132C1258.9 132 1227.8 132 1196.7 132C1194.8 132 1194.8 135 1196.7 135Z" fill="#E8E8E8"/>
<path d="M1196.1 114.3C1207.6 110.3 1219.7 113.9 1230.9 117.2C1242.3 120.5 1253.5 124.5 1264.4 129.1C1266.2 129.8 1267 126.9 1265.2 126.2C1253.1 121.1 1240.7 116.8 1228.1 113.3C1217.4 110.4 1206.1 107.6 1195.3 111.4C1193.5 112 1194.3 114.9 1196.1 114.3Z" fill="#E8E8E8"/>
<path d="M1234.1 117.7C1253 116.6 1270.7 109 1289.4 106.9C1291.3 106.7 1291.3 103.7 1289.4 103.9C1270.7 106 1253 113.5 1234.1 114.7C1232.1 114.9 1232.1 117.9 1234.1 117.7Z" fill="#E8E8E8"/>
<path d="M1269.9 81.1C1265.7 78.7 1269.5 70.8 1274 72.7C1276.4 73.7 1276.9 76.6 1275.6 78.7C1274.2 81 1271.3 81.4 1268.9 80.7C1267 80.2 1266.2 83.1 1268.1 83.6C1272.1 84.7 1276.6 83.5 1278.6 79.6C1280.4 76.1 1279 71.5 1275.2 69.9C1267.4 66.6 1261 79.6 1268.4 83.7C1270 84.6 1271.6 82 1269.9 81.1Z" fill="#E8E8E8"/>
<path d="M1239.3 54.3C1239.4 52.6 1239.5 50.9 1240 49.3C1240.4 48 1241.4 44.9 1242.9 44.3C1245.6 43.3 1246.6 52.8 1246.8 54.6C1247 56.5 1250 56.5 1249.8 54.6C1249.5 51.1 1248.7 40.1 1243.1 40.9C1240.7 41.2 1239 43.9 1238.1 45.9C1236.9 48.5 1236.5 51.4 1236.4 54.2C1236.3 56.2 1239.3 56.2 1239.3 54.3Z" fill="#E8E8E8"/>
<path d="M1256.1 520.8C1256.1 532.8 1256.1 544.9 1256.1 556.9C1256.1 558.8 1259.1 558.8 1259.1 556.9C1259.1 544.9 1259.1 532.8 1259.1 520.8C1259.1 518.9 1256.1 518.9 1256.1 520.8Z" fill="#E8E8E8"/>
<path d="M1219.8 561.3C1247 561.3 1274.3 561.3 1301.5 561.3C1303.4 561.3 1303.4 558.3 1301.5 558.3C1274.3 558.3 1247 558.3 1219.8 558.3C1217.9 558.3 1217.9 561.3 1219.8 561.3Z" fill="#E8E8E8"/>
<path d="M1231.3 562.2C1231.3 567.9 1231.3 573.5 1231.3 579.2C1231.3 581.1 1234.3 581.1 1234.3 579.2C1234.3 573.5 1234.3 567.9 1234.3 562.2C1234.3 560.3 1231.3 560.3 1231.3 562.2Z" fill="#E8E8E8"/>
<path d="M1275 563.1C1275 569.8 1275 576.6 1275 583.3C1275 585.2 1278 585.2 1278 583.3C1278 576.6 1278 569.8 1278 563.1C1278 561.1 1275 561.1 1275 563.1Z" fill="#E8E8E8"/>
<path d="M1253.8 587.2C1272.7 587.2 1291.6 587.2 1310.5 587.2C1312.4 587.2 1312.4 584.2 1310.5 584.2C1291.6 584.2 1272.7 584.2 1253.8 584.2C1251.9 584.2 1251.9 587.2 1253.8 587.2Z" fill="#E8E8E8"/>
<path d="M561.9 879.6C593.4 858.3 609.2 847.6 613.3 846.3C623.3 843.1 655.7 832.8 684 850.1C704.3 862.5 723 889.4 715.2 907.4C709.6 920.2 692.5 924.2 677 927.9C654.1 933.3 634.5 930.3 623.5 927.7C619.2 931.9 612.3 937.5 602.6 941.2C586.5 947.4 567.9 946.3 567 942.6C566.6 940.7 570.6 937 590 929.4C587.7 926.9 584.3 923.9 579.5 921.8C565.3 915.3 551.1 921.6 548.4 922.9C562.3 931 565.3 935.2 564.6 937.5C562.8 943.3 534.5 945.2 526.9 931.9C526.1 930.6 523.9 926.1 525.7 917.6C529.3 902 542.3 892.9 561.9 879.6Z" fill="#161616"/>
<path d="M699.1 901.8C702.3 895.2 716.7 896.8 722.3 897.4C729.5 898.2 735.9 898.9 741.7 904C746.1 907.8 752.5 916.1 750.2 922.8C748.1 929.2 740.2 928.7 724.9 936.2C722.3 937.5 697.3 949.8 699 957.9C699.7 961.2 704.2 961.1 718.5 967.2C730.9 972.4 738.2 975.6 744.3 982.6C747.3 986.1 753.3 993 751.7 1000C748.7 1012.9 721.9 1015.1 721.2 1013.1C720.6 1011.4 739.4 1006.7 739.6 997.9C739.8 991.2 729.3 985.8 722.7 982.3C703.3 972.2 690.2 975.8 685.1 966.1C682.2 960.6 683.8 954.7 684.1 953.6C685.6 948.2 689.8 943.6 710.3 933.3C729 923.9 737.3 921.7 737.2 917.5C737.1 913.6 729.9 910.4 725.5 909.3C713.1 906 704 913.8 699.8 909.4C698 907.4 698.1 904 699.1 901.8Z" fill="#161616"/>
<path d="M528.3 853.4C534.6 858.1 540.9 862.8 547.2 867.5C556.2 866.6 565.1 865.8 574.1 864.9C579.7 859.5 585.3 854 590.9 848.6C591.3 852 592.1 859.7 592.4 863.4C595.9 896.7 596.2 899.6 594.1 903.4C587.2 915.7 563.9 920.7 550.5 912.1C544 907.9 541.5 901.6 536.8 889.5C531.1 874.9 529.1 862.1 528.3 853.4Z" fill="#161616"/>
<path d="M553.7 888C552.2 891.1 548.9 893 545.5 892.4C544.6 892.2 544.2 893.7 545.1 893.8C549.2 894.5 553.3 892.5 555 888.7C555.4 887.9 554.2 887.1 553.7 888Z" fill="white"/>
<path d="M567.599 887C570.899 890.2 575.299 891.6 579.799 890.9C580.799 890.8 580.299 889.3 579.399 889.5C575.399 890.1 571.499 888.8 568.599 886C567.899 885.3 566.899 886.3 567.599 887Z" fill="white"/>
<path d="M562.299 896.5C561.999 896.5 561.799 896.4 561.499 896.4C561.599 896.3 561.599 896.1 561.699 896C561.899 896.2 562.199 896.4 562.399 896.6C562.399 896.4 562.299 896.3 562.299 896.1C561.999 895.2 560.6 895.6 560.899 896.5C561.399 898.7 562.199 902.1 559.499 903.2C558.599 903.6 559 905 559.9 904.6C563.499 903.1 563.099 899.2 562.399 896C561.899 896.1 561.399 896.3 560.999 896.4C560.999 896.6 561.099 896.7 561.099 896.9C561.199 897.2 561.499 897.5 561.799 897.5C564.399 897.3 562.299 893.7 561.099 895.8C560.599 896.5 561.799 897.3 562.299 896.5Z" fill="white"/>
<path d="M561.3 897.2C561.8 898.9 561.9 900.8 563 902.3C563.9 903.5 565.3 904.1 566.8 903.8C567.7 903.6 567.3 902.2 566.4 902.4C563.6 903 563.2 898.6 562.7 896.8C562.5 895.9 561.1 896.3 561.3 897.2Z" fill="white"/>
<path d="M556.499 898.6C553.599 897.3 550.599 896.7 547.399 896.9C546.399 897 546.399 898.5 547.399 898.4C550.299 898.2 553.099 898.7 555.699 899.9C556.599 900.3 557.399 899 556.499 898.6Z" fill="white"/>
<path d="M553.9 900.6C551.4 900.8 549.2 901.8 547.5 903.5C546.8 904.2 547.9 905.2 548.6 904.6C550.1 903.2 551.9 902.3 554 902.1C554.8 902 554.8 900.5 553.9 900.6Z" fill="white"/>
<path d="M568.2 897.9C571.1 896.8 574 896.4 577.1 896.7C578.1 896.8 578.1 895.3 577.1 895.2C573.9 894.9 570.8 895.4 567.8 896.5C566.9 896.8 567.2 898.3 568.2 897.9Z" fill="white"/>
<path d="M570.199 900.6C572.399 900.3 574.499 900.5 576.599 901.3C577.499 901.6 577.899 900.2 576.999 899.9C574.799 899.1 572.499 898.9 570.199 899.2C569.199 899.2 569.199 900.8 570.199 900.6Z" fill="white"/>
<path d="M546.6 883.6C548.1 882.7 549.9 882.7 551.4 883.6C552.2 884.1 553 882.8 552.2 882.3C550.2 881.2 547.9 881.2 545.9 882.3C545 882.8 545.8 884.1 546.6 883.6Z" fill="white"/>
<path d="M567.6 881.6C569.1 880.8 570.8 880.6 572.6 880.8C573.5 880.9 574 879.5 573 879.4C570.9 879.1 568.8 879.4 566.9 880.4C565.9 880.7 566.7 882 567.6 881.6Z" fill="white"/>
<path d="M543.7 850.2C546.8 848.9 549.9 847.6 552.9 846.2C552.3 845.8 551.8 845.4 551.2 844.9C550 848.7 548.2 852.1 545.8 855.3C545.2 856.1 546.2 857.3 547.1 857C550.5 855.7 553.9 854.5 557.3 853.2C558.6 852.7 558.1 850.5 556.7 851C553.3 852.3 549.9 853.5 546.5 854.8C546.9 855.4 547.3 855.9 547.8 856.5C550.4 853.2 552.2 849.6 553.5 845.6C553.8 844.6 552.7 844 551.8 844.3C548.7 845.6 545.6 846.9 542.6 848.3C541.2 848.9 542.4 850.8 543.7 850.2Z" fill="#161616"/>
<path d="M548.699 832C550.799 830.8 552.899 830 555.199 829.5C554.799 828.9 554.399 828.4 553.899 827.8C552.999 829.8 551.899 831.8 550.599 833.6C550.099 834.4 550.799 835.2 551.599 835.3C554.299 835.5 556.799 834.8 558.899 833.2C559.999 832.3 558.899 830.4 557.799 831.3C555.999 832.7 553.999 833.3 551.699 833.1C551.999 833.7 552.299 834.2 552.699 834.8C553.999 832.9 555.099 831 555.999 829C556.399 828.1 555.699 827.1 554.699 827.3C552.199 827.8 549.799 828.7 547.599 830C546.299 830.8 547.399 832.7 548.699 832Z" fill="#161616"/>
<path d="M565.199 856.2C561.899 852.9 567.599 851 568.199 848.1C568.799 844.7 564.799 841.5 569.299 838.9C570.599 838.2 569.399 836.2 568.199 837C566.599 837.9 565.299 839.3 564.899 841.2C564.299 844.4 567.099 846.3 564.699 849.2C563.599 850.6 562.299 851 561.899 852.9C561.499 854.8 562.299 856.4 563.599 857.8C564.699 858.8 566.299 857.2 565.199 856.2Z" fill="#161616"/>
<path d="M841.3 570.7C590.6 588.8 339.9 606.8 89.3 624.9C82.5 443.1 75.7 261.3 69 79.5C320.8 76.1 572.6 72.7 824.4 69.3C830 236.4 835.6 403.5 841.3 570.7Z" fill="white" stroke="#161616" stroke-width="3.5" stroke-miterlimit="10"/>
<path d="M282 168C330.6 168 379.3 168 427.9 168C429.8 168 429.8 165 427.9 165C379.3 165 330.6 165 282 165C280.1 165 280.1 168 282 168Z" fill="#161616"/>
<path d="M336.6 180.3C386.7 180.3 436.8 180.3 486.9 180.3C488.8 180.3 488.8 177.3 486.9 177.3C436.8 177.3 386.7 177.3 336.6 177.3C334.6 177.3 334.6 180.3 336.6 180.3Z" fill="#161616"/>
<path d="M99.3999 473.7C101.2 515.5 103 557.4 104.8 599.2C104.9 601.1 107.9 601.1 107.8 599.2C106 557.4 104.2 515.5 102.4 473.7C102.3 471.8 99.2999 471.8 99.3999 473.7Z" fill="#161616"/>
<path d="M319.7 449.3C324 449.3 328.3 449.3 332.7 449.3C334.6 449.3 334.6 446.3 332.7 446.3C328.4 446.3 324.1 446.3 319.7 446.3C317.8 446.3 317.8 449.3 319.7 449.3Z" fill="#161616"/>
<path d="M344 449.3C355.1 449.3 366.1 449.3 377.2 449.3C379.1 449.3 379.1 446.3 377.2 446.3C366.1 446.3 355.1 446.3 344 446.3C342.1 446.3 342.1 449.3 344 449.3Z" fill="#161616"/>
<path d="M402.3 447.7C415.5 447.7 428.7 447.7 442 447.7C443.9 447.7 443.9 444.7 442 444.7C428.8 444.7 415.6 444.7 402.3 444.7C400.4 444.7 400.4 447.7 402.3 447.7Z" fill="#161616"/>
<path d="M337.6 470.3C353.8 470.3 370 470.3 386.2 470.3C388.1 470.3 388.1 467.3 386.2 467.3C370 467.3 353.8 467.3 337.6 467.3C335.6 467.3 335.6 470.3 337.6 470.3Z" fill="#161616"/>
<path d="M361 459C379.9 459 398.8 459 417.7 459C419.6 459 419.6 456 417.7 456C398.8 456 379.9 456 361 456C359.1 456 359.1 459 361 459Z" fill="#161616"/>
<path d="M461.4 565.9C493.2 565.9 525.1 565.9 556.9 565.9C558.8 565.9 558.8 562.9 556.9 562.9C525.1 562.9 493.2 562.9 461.4 562.9C459.5 562.9 459.5 565.9 461.4 565.9Z" fill="#161616"/>
<path d="M539.9 574C556.6 574 573.4 574 590.1 574C592 574 592 571 590.1 571C573.4 571 556.6 571 539.9 571C538 571 538 574 539.9 574Z" fill="#161616"/>
<path d="M583.6 561.8C600.1 561.8 616.5 561.8 633 561.8C634.9 561.8 634.9 558.8 633 558.8C616.5 558.8 600.1 558.8 583.6 558.8C581.7 558.8 581.7 561.8 583.6 561.8Z" fill="#161616"/>
<path d="M667.8 290.7C698.3 290.7 728.8 290.7 759.3 290.7C761.2 290.7 761.2 287.7 759.3 287.7C728.8 287.7 698.3 287.7 667.8 287.7C665.9 287.7 665.9 290.7 667.8 290.7Z" fill="#161616"/>
<path d="M639.5 295.5C649.2 295.5 658.9 295.5 668.6 295.5C670.5 295.5 670.5 292.5 668.6 292.5C658.9 292.5 649.2 292.5 639.5 292.5C637.5 292.5 637.5 295.5 639.5 295.5Z" fill="#161616"/>
<path d="M645.1 303.6C677.7 303.6 710.4 303.6 743 303.6C744.9 303.6 744.9 300.6 743 300.6C710.4 300.6 677.7 300.6 645.1 300.6C643.2 300.6 643.2 303.6 645.1 303.6Z" fill="#161616"/>
<path d="M765.8 296.3C772 296.3 778.2 296.3 784.4 296.3C786.3 296.3 786.3 293.3 784.4 293.3C778.2 293.3 772 293.3 765.8 293.3C763.8 293.3 763.8 296.3 765.8 296.3Z" fill="#161616"/>
<path d="M741.5 418.5C750.7 418.5 759.8 418.5 769 418.5C770.9 418.5 770.9 415.5 769 415.5C759.8 415.5 750.7 415.5 741.5 415.5C739.5 415.5 739.5 418.5 741.5 418.5Z" fill="#161616"/>
<path d="M723.7 426.6C733.7 426.6 743.7 426.6 753.6 426.6C755.5 426.6 755.5 423.6 753.6 423.6C743.6 423.6 733.6 423.6 723.7 423.6C721.7 423.6 721.7 426.6 723.7 426.6Z" fill="#161616"/>
<path d="M738.2 434.7C757.9 434.7 777.6 434.7 797.3 434.7C799.2 434.7 799.2 431.7 797.3 431.7C777.6 431.7 757.9 431.7 738.2 431.7C736.3 431.7 736.3 434.7 738.2 434.7Z" fill="#161616"/>
<path d="M775.5 425C781.4 425 787.4 425 793.3 425C795.2 425 795.2 422 793.3 422C787.4 422 781.4 422 775.5 422C773.5 422 773.5 425 775.5 425Z" fill="#161616"/>
<path d="M363.6 300.3C377.6 300.3 391.5 300.3 405.5 300.3C407.4 300.3 407.4 297.3 405.5 297.3C391.5 297.3 377.6 297.3 363.6 297.3C361.7 297.3 361.7 300.3 363.6 300.3Z" fill="#161616"/>
<path d="M394.099 308.9C414.699 308.9 435.399 308.9 456 308.9C457.9 308.9 457.9 305.9 456 305.9C435.399 305.9 414.699 305.9 394.099 305.9C392.199 305.9 392.099 308.9 394.099 308.9Z" fill="#161616"/>
<path d="M448.4 297.4C460.1 297.4 471.9 297.4 483.6 297.4C485.5 297.4 485.5 294.4 483.6 294.4C471.9 294.4 460.1 294.4 448.4 294.4C446.5 294.4 446.5 297.4 448.4 297.4Z" fill="#161616"/>
<path d="M90.5 137.8C92.7 213.7 94.9 289.7 97.1 365.6C97.7 387.2 98.3 408.7 99 430.3C99.1 432.2 102.1 432.2 102 430.3C99.8 354.4 97.6 278.4 95.4 202.5C94.8 180.9 94.2 159.4 93.5 137.8C93.5 135.9 90.5 135.9 90.5 137.8Z" fill="#161616"/>
<path d="M817.4 385.9C818.9 436.1 820.4 486.2 821.9 536.4C822 538.3 825 538.3 824.9 536.4C823.4 486.2 821.9 436.1 820.4 385.9C820.4 384 817.4 384 817.4 385.9Z" fill="#161616"/>
<path d="M610.3 362.9C610.9 369 611.5 375.2 612 381.3C617.8 379.8 623.5 378.2 629.3 376.7C628.5 370.6 627.8 364.4 627 358.3C621.4 359.8 615.9 361.4 610.3 362.9Z" fill="#939393"/>
<path d="M606.8 409.6C612.8 408.8 618.7 408.1 624.7 407.3C625.5 414.6 626.2 421.9 627 429.2C621.6 429.4 616.2 429.6 610.9 429.8C609.5 423 608.2 416.3 606.8 409.6Z" fill="#939393"/>
<path d="M628.699 453.9C630.599 460.2 632.499 466.6 634.499 472.9C639.899 470.4 645.299 467.9 650.599 465.4C648.899 459.8 647.099 454.3 645.399 448.7C639.899 450.5 634.299 452.2 628.699 453.9Z" fill="#939393"/>
<path d="M233.399 513.5C234.699 532.9 235.999 552.3 237.299 571.6C271.299 569.4 305.299 567.3 339.299 565.1C339.899 547.7 340.599 530.2 341.199 512.8C305.299 513.1 269.299 513.3 233.399 513.5Z" fill="#8C8C8C"/>
<path d="M656.1 118.8C660.021 118.8 663.2 116.158 663.2 112.9C663.2 109.642 660.021 107 656.1 107C652.179 107 649 109.642 649 112.9C649 116.158 652.179 118.8 656.1 118.8Z" fill="#444444"/>
<path d="M173.599 163C176.858 163 179.499 161.254 179.499 159.1C179.499 156.946 176.858 155.2 173.599 155.2C170.341 155.2 167.699 156.946 167.699 159.1C167.699 161.254 170.341 163 173.599 163Z" fill="#828282"/>
<path d="M267.499 276.1C270.04 276.1 272.099 273.682 272.099 270.7C272.099 267.718 270.04 265.3 267.499 265.3C264.959 265.3 262.899 267.718 262.899 270.7C262.899 273.682 264.959 276.1 267.499 276.1Z" fill="#828282"/>
<path opacity="0.21" d="M225.299 141.4C227.099 141.1 230.599 157.8 239.199 188.1C250.499 228 261.699 260.2 269.799 282.2C257.499 289.8 229.999 304.3 192.499 304.8C165.999 305.1 145.099 298.3 132.699 293.1C156.999 295.8 176.599 295.1 190.299 293.8C211.999 291.8 208.199 289.5 224.599 288.7C231.399 288.4 240.299 288.4 249.399 282.9C252.699 280.9 255.099 278.7 256.699 277.1C250.299 263.9 242.099 244.5 235.499 220.2C224.999 180.7 222.699 141.9 225.299 141.4Z" fill="#6D6C6C"/>
<path opacity="0.25" d="M319 249.9C320.6 262.6 323.5 276.8 328.3 292C342 335.2 365.1 366 382.5 385C372.1 392.7 359.2 400.7 343.7 407.4C296.7 427.7 252.8 424.7 229.3 421.1C228.4 415.8 227.5 410.5 226.6 405.2C236.6 405.5 247.2 405.3 258.3 404.7C297.9 402.2 331.9 393.3 359 383.4C350.4 368.8 344.2 356.2 339.9 346.7C329.5 324 321.8 306.9 319.1 283.8C317.4 269.7 318.1 257.8 319 249.9Z" fill="#6D6C6C"/>
<path opacity="0.14" d="M636.899 316.1C637.899 338.9 640.299 357.8 642.399 371.4C647.299 402.6 650.899 424.2 663.699 448.5C671.699 463.6 680.699 474.7 687.199 481.9C675.899 491.6 660.699 502.6 641.199 511.4C592.199 533.7 546.199 529.2 524.699 525.6C523.599 520.7 522.499 515.8 521.399 510.8C524.099 511 528.299 511.2 533.399 511.3C550.399 511.7 585.799 512.3 626.399 498.7C637.799 494.9 653.799 488.5 671.799 477.9C664.699 468.4 657.699 457.1 651.599 444C627.499 392.3 632.299 342.1 636.899 316.1Z" fill="#6D6C6C"/>
<path opacity="0.18" d="M713.5 91.8C715.5 101.1 718.4 115.3 721.3 133C726.7 167.2 726.3 179.6 732.6 199.8C735.9 210.3 741.8 225.2 752.9 242.2C743.6 249.8 732 257.7 717.7 264.3C670.9 286 626.1 279.9 605.5 275.6C605.7 271.6 605.9 267.6 606.1 263.7C608.7 264.4 612.6 265.3 617.4 266.1C623.7 267.1 647 270.5 690.8 259.5C702.9 256.5 719.2 251.7 737.9 244C734.3 237.6 729 227.6 724.2 214.8C710.2 177.7 710.3 145.5 710.5 128.9C710.6 119.8 711.2 107.1 713.5 91.8Z" fill="#6D6C6C"/>
<path d="M115.7 135.7C105.8 188.1 115.8 241.1 125.8 292.7C126.2 294.6 129.1 293.8 128.7 291.9C118.8 240.9 108.9 188.4 118.6 136.5C118.9 134.7 116 133.8 115.7 135.7Z" fill="#161616"/>
<path d="M118.499 135.3C132.799 144.9 150.099 146.6 166.999 145.4C186.299 144 205.399 139.9 224.499 136.7C226.399 136.4 225.599 133.5 223.699 133.8C205.399 136.8 187.099 140.7 168.599 142.2C151.699 143.6 134.399 142.3 119.999 132.6C118.399 131.6 116.899 134.2 118.499 135.3Z" fill="#161616"/>
<path d="M222.5 138.8C225.3 186.6 232.5 235.4 256.7 277.4C257.7 279.1 260.299 277.6 259.299 275.9C235.4 234.3 228.3 186 225.5 138.8C225.4 136.9 222.4 136.9 222.5 138.8Z" fill="#161616"/>
<path d="M128.299 293.5C150.999 300.1 175.399 296.1 198.499 294.2C218.999 292.5 240.999 291.7 258.599 279.7C260.199 278.6 258.699 276 257.099 277.1C239.399 289.2 217.199 289.6 196.599 291.3C174.399 293.1 150.999 296.8 129.099 290.5C127.199 290.1 126.399 293 128.299 293.5Z" fill="#161616"/>
<path d="M166.7 159.7C164.7 158.8 166.9 156.9 168.1 156.6C169.6 156.2 172.5 156 173.2 157.7C173.7 159 172.9 160.7 171.7 161.2C169.8 162.1 167.7 161 166.4 159.7C165 158.3 162.9 160.4 164.3 161.8C166.8 164.3 170.9 165.6 174 163.3C176.5 161.5 177.4 157.5 175.3 155.1C172.9 152.4 167.8 152.7 165.1 154.7C162.7 156.5 162.2 160.8 165.3 162.2C167 163.1 168.5 160.5 166.7 159.7Z" fill="#161616"/>
<path d="M206.8 293.9C199.6 330.4 207.3 367.3 215.1 403.1C215.5 405 218.4 404.2 218 402.3C210.3 367.1 202.7 330.7 209.7 294.7C210.1 292.8 207.2 292 206.8 293.9Z" fill="#161616"/>
<path d="M248.099 255.6C271.199 251.2 294.599 249.6 317.999 250.5C317.499 250 316.999 249.5 316.499 249C311.799 297.2 332.399 343.1 357.399 383C358.399 384.6 360.999 383.1 359.999 381.5C335.299 342 314.799 296.7 319.499 249C319.599 248.2 318.699 247.5 317.999 247.5C294.299 246.6 270.599 248.3 247.299 252.7C245.399 253.1 246.199 256 248.099 255.6Z" fill="#161616"/>
<path d="M216.699 405.2C265.299 410.9 314.599 403.6 359.599 384.4C361.399 383.6 359.799 381.1 358.099 381.8C313.699 400.8 264.699 407.8 216.699 402.2C214.799 402 214.799 405 216.699 405.2Z" fill="#161616"/>
<path d="M266.899 267.9C266.899 267.8 267.2 267.3 267.2 267.1C267.3 266.7 267.599 266.3 267.899 266C268.499 265.5 269.199 265.1 269.999 265C271.499 264.8 272.899 265.6 273.299 267.1C273.599 268.3 273.1 269.9 271.7 270.1C270.4 270.3 269.199 269.4 268.999 268.1C268.699 266.2 265.8 267 266.1 268.9C266.6 272.4 271.099 274.1 273.999 272.4C277.199 270.5 276.999 265.6 274.299 263.3C271.299 260.8 266.3 262.1 264.6 265.5C263.8 267.2 263.8 269.5 265.7 270.5C267.2 271.3 269.399 270.6 269.799 268.7C270.099 266.8 267.199 266 266.899 267.9Z" fill="#161616"/>
<path d="M125.6 190.1C152.2 193.8 178.6 188.3 204.1 181C206 180.5 205.2 177.6 203.3 178.1C178.3 185.2 152.4 190.8 126.4 187.2C124.5 186.9 123.7 189.8 125.6 190.1Z" fill="#161616"/>
<path d="M130.6 209.7C144.4 211.2 158.2 209.8 171.5 205.6C173.3 205 172.6 202.1 170.7 202.7C157.7 206.8 144.2 208.1 130.6 206.7C128.7 206.5 128.7 209.5 130.6 209.7Z" fill="#161616"/>
<path d="M130.6 233.9C157 237 183.6 235.1 209.2 228.4C211.1 227.9 210.3 225 208.4 225.5C183 232.2 156.7 234 130.6 230.9C128.7 230.6 128.7 233.6 130.6 233.9Z" fill="#161616"/>
<path d="M229.399 387.4C255.899 388.6 282.399 385.4 307.799 377.8C309.599 377.3 308.899 374.4 306.999 374.9C281.799 382.4 255.699 385.6 229.399 384.4C227.399 384.3 227.399 387.3 229.399 387.4Z" fill="#161616"/>
<path d="M234.499 364.5C246.299 364.1 258.099 363.2 269.899 361.9C271.799 361.7 271.799 358.7 269.899 358.9C258.099 360.2 246.399 361.1 234.499 361.5C232.599 361.6 232.599 364.6 234.499 364.5Z" fill="#161616"/>
<path d="M244.1 323.3C251.9 324.3 260 322.3 267.7 321.2C276.2 319.9 284.6 318.7 293.1 317.4C295 317.1 294.2 314.2 292.3 314.5C284.5 315.7 276.6 316.9 268.8 318C260.7 319.2 252.3 321.4 244.1 320.3C242.2 320 242.2 323 244.1 323.3Z" fill="#161616"/>
<path d="M597.5 99.1001C586.6 152.6 585.5 207.6 594.2 261.5C594.5 263.4 597.4 262.6 597.1 260.7C588.5 207.4 589.7 152.8 600.4 99.9001C600.8 98.0001 597.9 97.2001 597.5 99.1001Z" fill="#161616"/>
<path d="M600.9 99.8001C637.2 91.5001 674.7 89.8001 711.7 94.8001C713.6 95.1001 714.4 92.2 712.5 91.9C675 86.8 637 88.5 600.1 96.9C598.3 97.4 599.1 100.3 600.9 99.8001Z" fill="#161616"/>
<path d="M710.8 92.1C709.7 143.6 710.4 198 736.5 244.1C737.5 245.8 740 244.3 739.1 242.6C713.3 197 712.7 143.1 713.8 92.1C713.9 90.2 710.9 90.2 710.8 92.1Z" fill="#161616"/>
<path d="M596.5 263.1C607.7 266.5 619.7 266.7 631.3 266.8C643.8 266.9 656.3 266.1 668.8 264.4C692.7 261.2 716 254.7 738.3 245.3C740.1 244.6 738.5 242 736.8 242.7C714.5 252.1 691 258.5 667 261.6C655.8 263 644.5 263.8 633.2 263.7C621.3 263.7 608.8 263.6 597.4 260.1C595.4 259.7 594.7 262.6 596.5 263.1Z" fill="#161616"/>
<path d="M657.7 103C654.3 104.2 652.8 108.1 654 111.4C655.4 115.1 659.7 116 662.9 113.8C666 111.6 667 107.2 664 104.4C661.4 102 656.9 101.9 654.5 104.5C653.2 105.9 655.3 108 656.6 106.6C659.6 103.4 665.5 107.9 661.4 111.1C659.8 112.3 657.5 112.3 656.8 110.2C656.3 108.6 656.8 106.4 658.5 105.8C660.3 105.2 659.5 102.3 657.7 103Z" fill="#161616"/>
<path d="M599 145.6C626.3 146.3 653.5 145.8 680.7 144C682.6 143.9 682.6 140.9 680.7 141C653.5 142.8 626.2 143.4 599 142.6C597 142.6 597 145.6 599 145.6Z" fill="#161616"/>
<path d="M601.699 160.8C611.899 161.2 622.099 161.6 632.199 162C634.099 162.1 634.099 159.1 632.199 159C621.999 158.6 611.799 158.2 601.699 157.8C599.699 157.7 599.699 160.7 601.699 160.8Z" fill="#161616"/>
<path d="M598.9 182C624.6 183.4 650.6 184.6 675.9 179C677.8 178.6 677 175.7 675.1 176.1C650 181.6 624.3 180.4 598.9 179C597 178.9 597 181.9 598.9 182Z" fill="#161616"/>
<path d="M226.1 507.1C223.8 527.1 223 547.2 223.7 567.3C223.8 569.2 226.8 569.2 226.7 567.3C226 547.2 226.8 527.1 229.1 507.1C229.3 505.2 226.3 505.2 226.1 507.1Z" fill="#161616"/>
<path d="M227.1 508.3C262.7 508.3 298.4 507.8 334 506.7C335.9 506.6 335.9 503.6 334 503.7C298.4 504.8 262.7 505.3 227.1 505.3C225.2 505.3 225.2 508.3 227.1 508.3Z" fill="#161616"/>
<path d="M333.7 505.3C334 522.7 334.3 540 334.6 557.4C334.6 559.3 337.6 559.3 337.6 557.4C337.3 540 337 522.7 336.7 505.3C336.7 503.4 333.6 503.4 333.7 505.3Z" fill="#161616"/>
<path d="M223.399 565.1C223.599 571.6 234.899 568.7 238.599 568.5C249.199 567.8 259.799 567.1 270.299 566.3C291.799 564.8 313.299 563.4 334.799 561.9C336.699 561.8 336.699 558.8 334.799 558.9C316.499 560.1 298.299 561.4 279.999 562.6C271.299 563.2 262.599 563.8 253.899 564.4C251.299 564.6 226.399 567 226.299 565.1C226.399 563.2 223.399 563.2 223.399 565.1Z" fill="#161616"/>
<path d="M235.2 521.8C259.2 520.7 283.2 521.6 307 524.6C308.9 524.8 308.9 521.8 307 521.6C283.2 518.6 259.2 517.7 235.2 518.8C233.2 518.9 233.2 521.9 235.2 521.8Z" fill="#161616"/>
<path d="M236.1 537C249.5 536 263 534.9 276.4 533.9C278.3 533.8 278.3 530.8 276.4 530.9C263 531.9 249.5 533 236.1 534C234.2 534.1 234.2 537.1 236.1 537Z" fill="#161616"/>
<path d="M240.6 552.3C259.9 549.8 280.9 544.7 300.3 548.2C302.2 548.5 303 545.7 301.1 545.3C281.3 541.7 260.3 546.7 240.6 549.3C238.8 549.6 238.7 552.6 240.6 552.3Z" fill="#161616"/>
<path d="M500.699 336.9C484.799 393.5 486.799 454.1 506.299 509.6C506.899 511.4 509.799 510.6 509.199 508.8C489.899 453.8 487.899 393.8 503.599 337.7C504.099 335.8 501.199 335 500.699 336.9Z" fill="#161616"/>
<path d="M502.699 337.9C547.199 337.7 591.499 331.9 634.599 320.6C636.499 320.1 635.699 317.2 633.799 317.7C590.999 328.9 546.999 334.7 502.699 334.9C500.699 334.9 500.699 337.9 502.699 337.9Z" fill="#161616"/>
<path d="M633.799 318.8C631.999 346.6 633.199 374.6 638.199 402.1C640.699 416 643.699 429.9 649.199 442.9C654.699 455.8 662.299 467.5 671.199 478.2C672.399 479.7 674.599 477.6 673.299 476.1C664.199 465.2 656.499 453.1 651.099 439.9C645.999 427.3 643.199 413.8 640.899 400.5C636.099 373.6 634.999 346.1 636.699 318.8C636.899 316.9 633.899 316.9 633.799 318.8Z" fill="#161616"/>
<path d="M506.699 511.2C563.299 515.2 622.4 508.8 672 479.6C673.7 478.6 672.2 476 670.5 477C621.2 506 562.699 512.1 506.699 508.2C504.799 508 504.799 511 506.699 511.2Z" fill="#161616"/>
<path d="M566.9 346.9C565.2 344 568.6 340.4 571.5 342.7C574.6 345.2 571.3 349.2 568 347.9C566.2 347.2 565.4 350.1 567.2 350.8C569.9 351.9 573.2 350.7 574.8 348.3C576.6 345.6 575.8 342.2 573.3 340.3C567.9 336 561.1 342.7 564.3 348.4C565.3 350.1 567.9 348.6 566.9 346.9Z" fill="#161616"/>
<path d="M503.699 381.4C533.599 380.9 563.499 378.8 593.299 375.2C595.199 375 595.199 372 593.299 372.2C563.599 375.9 533.699 377.9 503.699 378.4C501.799 378.5 501.799 381.5 503.699 381.4Z" fill="#161616"/>
<path d="M603.999 361.3C604.899 365.9 605.799 370.6 606.699 375.2C607.099 377.1 609.999 376.3 609.599 374.4C608.699 369.8 607.799 365.1 606.899 360.5C606.599 358.6 603.699 359.4 603.999 361.3Z" fill="#161616"/>
<path d="M606 360.9C611.5 360.1 617 359.3 622.6 358.4C624.5 358.1 623.7 355.2 621.8 355.5C616.3 356.3 610.8 357.1 605.2 358C603.3 358.3 604.1 361.2 606 360.9Z" fill="#161616"/>
<path d="M621.699 357.5C622.499 361.8 623.199 366.1 623.999 370.3C624.299 372.2 627.199 371.4 626.899 369.5C626.099 365.2 625.399 360.9 624.599 356.7C624.299 354.9 621.399 355.7 621.699 357.5Z" fill="#161616"/>
<path d="M609.2 377.5C615.1 376.3 620.7 374.7 626.3 372.5C628.1 371.8 627.3 368.9 625.5 369.6C619.9 371.7 614.2 373.4 608.4 374.6C606.5 375 607.3 377.9 609.2 377.5Z" fill="#161616"/>
<path d="M609.7 364.3C610.8 366.8 612.3 368.8 614.5 370.5C615.3 371.1 616.8 371.1 617 369.8C617.8 364.4 619.7 359.6 622.9 355.1C624 353.5 621.4 352 620.3 353.6C617 358.2 614.9 363.4 614.1 369C614.9 368.8 615.8 368.6 616.6 368.3C614.7 366.8 613.3 365 612.3 362.7C611.5 361 608.9 362.5 609.7 364.3Z" fill="#161616"/>
<path d="M610.8 407.2C609.2 414.4 609.9 421.4 612.8 428.1C613.6 429.9 616.1 428.3 615.4 426.6C612.8 420.7 612.3 414.3 613.7 408C614.1 406.1 611.2 405.3 610.8 407.2Z" fill="#161616"/>
<path d="M612.8 408.2C618.8 407.2 624.8 406.3 630.8 405.3C630.2 404.7 629.6 404.1 629 403.5C628 409.9 628.7 416 631.2 422C631.9 423.8 634.8 423 634.1 421.2C631.8 415.8 631 410.1 631.9 404.3C632.1 403.1 631.3 402.3 630.1 402.5C624.1 403.4 618.1 404.4 612.1 405.4C610.1 405.6 610.9 408.5 612.8 408.2Z" fill="#161616"/>
<path d="M614.1 428.2C620.7 428 627 426.7 633.2 424.5C635 423.8 634.2 420.9 632.4 421.6C626.5 423.8 620.4 425 614.1 425.2C612.2 425.2 612.2 428.2 614.1 428.2Z" fill="#161616"/>
<path d="M615 414.3C615.9 416.9 617.4 418.7 619.8 420.1C620.9 420.7 621.9 419.9 622.1 418.8C622.7 413.5 624.1 408.4 626.3 403.5C627.1 401.8 624.5 400.2 623.7 402C621.3 407.4 619.8 413 619.1 418.8C619.9 418.4 620.6 417.9 621.4 417.5C619.7 416.5 618.7 415.3 618 413.4C617.3 411.7 614.4 412.5 615 414.3Z" fill="#161616"/>
<path d="M617 453.6C617.7 460.3 619.5 466.6 622.5 472.6C623.3 474.3 625.9 472.8 625.1 471.1C622.4 465.6 620.7 459.7 620.1 453.6C619.8 451.7 616.8 451.7 617 453.6Z" fill="#161616"/>
<path d="M618.4 453.3C626.1 454 633.3 452.6 640.2 449.2C639.5 448.9 638.7 448.6 638 448.3C639.3 454.4 642 459.7 646.2 464.4C647.5 465.8 649.6 463.7 648.3 462.3C644.5 458 642.1 453.2 640.9 447.6C640.7 446.6 639.5 446.3 638.7 446.7C632.3 449.8 625.5 451 618.4 450.4C616.5 450.2 616.5 453.2 618.4 453.3Z" fill="#161616"/>
<path d="M625.199 473.7C632.999 470.8 640.699 467.7 648.199 464.3C649.999 463.5 648.399 460.9 646.699 461.7C639.399 465 631.899 468 624.399 470.8C622.599 471.5 623.399 474.4 625.199 473.7Z" fill="#161616"/>
<path d="M623.599 458.6C625.999 460.7 631.499 467.9 634.299 462.6C635.599 460.2 635.299 456.9 636.099 454.2C637.299 450.4 639.299 446.9 641.899 443.9C643.099 442.4 640.999 440.3 639.799 441.8C636.999 445.1 634.799 448.7 633.499 452.9C632.899 454.8 632.399 456.8 632.099 458.8C631.699 461.3 630.999 460.7 629.099 459.5C627.899 458.7 626.799 457.5 625.699 456.5C624.299 455.2 622.199 457.3 623.599 458.6Z" fill="#161616"/>
<path d="M506.4 430.3C534.4 430 562.3 427.7 589.9 423.3C591.8 423 591 420.1 589.1 420.4C561.7 424.7 534.1 427 506.4 427.2C504.5 427.3 504.5 430.3 506.4 430.3Z" fill="#161616"/>
<path d="M503.199 389.7C521.299 390.2 539.299 389.6 557.299 388.1C559.199 387.9 559.199 384.9 557.299 385.1C539.299 386.6 521.199 387.1 503.199 386.7C501.299 386.6 501.299 389.6 503.199 389.7Z" fill="#161616"/>
<path d="M507.499 436.2C526.499 437.1 545.499 436.4 564.299 434C566.199 433.8 566.199 430.8 564.299 431C545.399 433.3 526.399 434.1 507.499 433.2C505.599 433.1 505.599 436.1 507.499 436.2Z" fill="#161616"/>
<path d="M570.699 432.6C576.099 432.7 581.399 432 586.599 430.3C588.399 429.7 587.599 426.8 585.799 427.4C580.899 429 575.899 429.7 570.699 429.6C568.799 429.6 568.799 432.6 570.699 432.6Z" fill="#161616"/>
<path d="M517.699 473.8C540.499 472.4 563.199 470.3 585.799 467.2C587.699 466.9 587.699 463.9 585.799 464.2C563.199 467.2 540.499 469.4 517.699 470.8C515.699 470.9 515.699 473.9 517.699 473.8Z" fill="#161616"/>
<path d="M520.3 480.8C527.8 480.8 535.3 480.8 542.8 480.8C544.7 480.8 544.7 477.8 542.8 477.8C535.3 477.8 527.8 477.8 520.3 477.8C518.4 477.8 518.4 480.8 520.3 480.8Z" fill="#161616"/>
<path d="M526.8 487.5C538.5 486.8 550.2 485.7 561.9 484.3C571.3 483.1 581.4 482.6 589.499 477.1C591.099 476 589.599 473.4 587.999 474.5C579.5 480.3 568.1 480.6 558.2 481.7C547.8 482.9 537.3 483.8 526.9 484.5C524.9 484.6 524.8 487.6 526.8 487.5Z" fill="#161616"/>
<path d="M640.999 406.7C659.199 405.8 677.299 403.4 695.199 399.6C694.599 399.3 693.999 398.9 693.399 398.6C701.799 423.6 714.199 446.9 730.099 468C731.199 469.5 733.899 468 732.699 466.5C716.999 445.7 704.699 422.6 696.299 397.9C695.999 397.1 695.299 396.7 694.499 396.9C676.899 400.7 659.099 403 641.099 403.9C638.999 403.8 638.999 406.8 640.999 406.7Z" fill="#161616"/>
<path d="M644.1 491.1C646.8 494.9 649 498.9 650.9 503.2C651.1 503.8 652 504.1 652.6 503.9C667.3 499 681.8 493.6 696 487.5C703.2 484.4 710.3 481.2 717.4 477.8C720.8 476.2 724.2 474.5 727.5 472.8C729.5 471.8 731.8 471.2 732.5 469C732.7 468.4 732.4 467.6 731.8 467.3C730.9 466.8 730.4 466.8 729.5 467.3C728.9 467.6 728.6 468.4 728.8 469C728.8 469.1 728.9 469.2 728.9 469.3C729.4 471.2 732.3 470.4 731.8 468.5C731.8 468.4 731.7 468.3 731.7 468.2C731.5 468.8 731.2 469.3 731 469.9C730.8 469.9 730.5 469.9 730.3 469.9C730.1 469.3 729.8 468.8 729.6 468.2C729 470 722.7 471.9 721 472.8C718.2 474.2 715.4 475.5 712.5 476.9C705.8 480.1 699 483.1 692.1 486C678.9 491.6 665.4 496.6 651.8 501.1C652.4 501.3 652.9 501.6 653.5 501.8C651.7 497.5 649.4 493.5 646.7 489.7C645.6 488 643 489.5 644.1 491.1Z" fill="#161616"/>
<path d="M661.5 414.5C661.3 413.2 663.699 412 664.599 412.9C665.799 414.1 663.8 416.3 662.4 415.8C660.6 415.1 659.799 418 661.599 418.7C665.899 420.3 670.099 414.1 666.799 410.8C665.299 409.3 663 409.4 661.2 410.3C659.3 411.3 658.3 413.2 658.7 415.3C658.9 417.2 661.8 416.3 661.5 414.5Z" fill="#161616"/>
<path d="M218.4 334.5C229.5 334.7 240.7 334.2 251.7 332.7C263.2 331.1 274.6 327.8 286.3 328.3C288.2 328.4 288.2 325.4 286.3 325.3C275.6 324.9 265.2 327.6 254.7 329.2C242.7 331.1 230.5 331.8 218.3 331.5C216.5 331.5 216.5 334.5 218.4 334.5Z" fill="#161616"/>
<path d="M219.999 301.4C236.999 302.7 253.999 301.2 270.499 296.9C272.399 296.4 271.599 293.5 269.699 294C253.399 298.2 236.799 299.7 219.999 298.4C218.099 298.3 218.099 301.3 219.999 301.4Z" fill="#161616"/>
<path d="M604.8 217.2C603.1 228.2 601.7 240.1 608.6 249.7C609.7 251.3 612.3 249.8 611.2 248.2C604.8 239.3 606.2 228.2 607.7 218C608 216.1 605.1 215.3 604.8 217.2Z" fill="#161616"/>
<path d="M605.7 217.1C629.5 218 653.3 215.7 676.5 210.2C675.9 209.9 675.3 209.5 674.7 209.2C676.8 219.5 680.8 229.1 686.4 237.9C687.4 239.5 690 238 689 236.4C683.5 227.8 679.7 218.4 677.6 208.4C677.4 207.6 676.5 207.2 675.8 207.4C652.9 212.8 629.4 215.1 605.8 214.2C603.8 214 603.8 217 605.7 217.1Z" fill="#161616"/>
<path d="M611.1 249.6C636.9 248.8 662.4 245 687.2 238.2C689.1 237.7 688.3 234.8 686.4 235.3C661.8 242.1 636.6 245.9 611.1 246.6C609.1 246.7 609.1 249.7 611.1 249.6Z" fill="#161616"/>
<path d="M963.7 948.1C963.7 959.4 963.7 970.6 963.7 981.9C883.7 1013.6 867.4 1024.9 868.6 1029C868.9 1030 871 1033 913 1028.1C954.6 1023.2 988.3 1016.1 1011.7 1010.3C1007.6 987.2 1003.4 964.1 999.3 941C987.4 943.4 975.5 945.8 963.7 948.1Z" fill="#161616"/>
<path d="M999.6 469.8C997.3 474.1 996.5 477.6 996.3 478.4C982 539.2 963.3 575.1 951.1 645.6C927.8 781.4 947.9 935.7 949.8 950.2C956.2 953 968.5 957.2 984.2 956.6C998 956 1008.7 951.9 1014.8 949C1012.5 904.7 1014.8 850 1030.1 789.7C1048.8 715.8 1072.5 691.3 1093.8 604.9C1109.6 540.9 1127.9 466.4 1096.3 444.3C1072.1 427.1 1015.4 439.7 999.6 469.8Z" fill="#4F4F4F"/>
<path opacity="0.2" d="M1054.9 501.7C1038.9 574.7 1024 652.5 1011.4 734.8C999.5 812.2 990.6 886.3 984 956.7C994.1 954.6 1004.1 952.5 1014.2 950.4C1012.9 919.3 1014.3 892.8 1016.3 872.5C1018.7 847.3 1024.8 788.6 1049.3 730C1052.5 722.5 1056.6 713.4 1063.3 696.3C1074.6 668 1082.8 643.8 1086.5 632.4C1103.9 578 1112.6 514.9 1115.3 494.1C1095.1 496.5 1075 499.1 1054.9 501.7Z" fill="#6D6C6C"/>
<path opacity="0.19" d="M1087.9 628.8C1048.7 679.9 1030.4 726.2 1021.2 757.3C1012.8 785.6 1009.1 810.6 1004.3 843C997.5 889 994.9 927.8 993.8 955.4C1000.4 953.8 1006.9 952.1 1013.5 950.5C1012.4 911.8 1015.1 878.7 1018.4 852.9C1022.4 822.3 1027 786.8 1043 744.1C1048.8 728.6 1051.6 724.2 1064.8 690.7C1075 664.5 1082.8 643 1087.9 628.8Z" fill="#6D6C6C"/>
<path d="M1179.7 936.6C1185.3 950.5 1191 964.4 1196.6 978.4C1149.6 1008.3 1127.4 1025.7 1129.9 1030.8C1133 1037.1 1173.6 1024.6 1251.7 993.5C1243.4 966.5 1235.1 939.6 1226.8 912.6C1211.1 920.6 1195.4 928.6 1179.7 936.6Z" fill="#161616"/>
<path d="M1141.1 471C1165.6 493.4 1164.8 524.8 1167.9 576.8C1167.9 576.8 1175.5 704.7 1201 807.5C1207.4 833.2 1219 873.1 1240.5 920.9C1236.9 925.5 1227.1 936.7 1209.9 942.6C1192.3 948.6 1177.3 945.4 1171.7 943.9C1141.1 891.7 1119.4 847.2 1105.4 816.4C1040.5 674.2 1035.3 599.3 1035.3 560.2C1035.3 520 1036 471.8 1065.9 455.7C1088.4 443.6 1121.4 453 1141.1 471Z" fill="#4F4F4F"/>
<path opacity="0.15" d="M1071.7 486.3C1082.8 529 1094.8 572.4 1107.6 616.4C1141 730.6 1177.3 838.5 1215.4 939.7C1219.1 937.8 1223.6 935.2 1228.2 931.7C1232.9 928.1 1236.6 924.5 1239.4 921.3C1234.2 909.2 1227 891.7 1219.4 870.2C1207.9 837.3 1189.2 776.8 1179.5 696.2C1170.2 618.8 1165.5 580.1 1165.9 555.7C1166.2 535.6 1168 494.7 1142 472.7C1136.6 468.2 1131.3 465.5 1127.6 463.9C1108.9 471.4 1090.3 478.9 1071.7 486.3Z" fill="#6D6C6C"/>
<path opacity="0.22" d="M1167.1 581.7C1162.5 628.2 1161 690.5 1172.2 762.5C1183.5 834.9 1204 894 1222.5 937C1228.2 932.3 1233.9 927.6 1239.6 922.8C1232.8 906.7 1223.9 884.3 1215 856.9C1197.9 804.2 1190.5 763.1 1184.1 726.2C1177.6 688.4 1170.8 639.5 1167.1 581.7Z" fill="#6D6C6C"/>
<path d="M698.901 105.7C694.901 107.7 689.401 111.2 685.101 117.2C682.801 120.3 680.001 124.4 679.601 130.2C679.501 132.5 679.201 137.5 682.401 140.8C683.301 141.8 685.701 143.7 697.501 143.3C708.001 142.9 713.301 142.7 716.001 139.9C721.201 134.5 719.301 124.3 716.001 118.2C710.801 108.5 700.601 106.1 698.901 105.7Z" fill="white" stroke="#161616" stroke-width="2" stroke-miterlimit="10"/>
<path d="M759.3 130.8C773.4 146.9 796 156.5 837.5 173.6C889.8 195.2 916 206 947 209.8C980.5 213.9 998.4 209.6 1004.6 220.5C1012.7 234.6 993.7 261 974.1 283.1C959.5 279.9 944.4 275.9 928.8 270.7C843.3 242.4 781.5 192.6 740.9 151.2C735.8 152.3 727.1 153.4 717.2 150.4C708.7 147.9 696.7 141.5 697.4 136.4C698.3 130.2 720 129.1 721.3 129C714.7 126.3 705.2 121.7 694.9 114.2C691.9 112 674.7 99.3 676.8 95.3C678.6 91.8 694.2 96.6 708.9 101.1C722.3 105.2 731.6 108.1 741.8 115.1C751.6 121.7 757.3 128.5 759.3 130.8Z" fill="white" stroke="#161616" stroke-width="2" stroke-miterlimit="10"/>
<path d="M690.1 106.8C692.5 109.5 693 113.1 695.1 115.9C696.9 118.4 699.501 120.2 702.201 121.7C710.301 126.2 718.901 129.9 727.201 134C728.601 134.7 730.401 132.8 729.001 131.6C724.701 127.9 720.1 124.6 715.3 121.6C713.7 120.6 712.1 123.2 713.8 124.2C718.4 127.1 722.801 130.2 726.901 133.7C727.501 132.9 728.101 132.1 728.701 131.3C720.801 127.5 712.9 123.8 705.1 119.7C701.4 117.8 698.1 115.6 696.2 111.8C694.9 109.2 694.2 106.7 692.2 104.5C690.9 103.3 688.8 105.4 690.1 106.8Z" fill="white"/>
<path d="M697.9 117.3C702.5 119.3 706.9 121.9 710.9 125C712.4 126.2 714.5 124.1 713 122.9C708.8 119.6 704.3 116.9 699.4 114.7C697.6 113.9 696.1 116.5 697.9 117.3Z" fill="white"/>
<path d="M686.1 105C689.9 111.1 694.9 116.1 700.8 120.1C702.4 121.2 703.9 118.6 702.3 117.5C696.8 113.8 692.2 109.1 688.7 103.4C687.7 101.9 685.1 103.4 686.1 105Z" fill="white"/>
<path d="M690.6 113.2C692.6 115.9 694.8 118.4 697.3 120.6C699.1 122.2 707 127.9 702.9 130.8C702.1 131.3 702.9 132.6 703.7 132.1C706.5 130.2 705.4 126.8 703.7 124.5C702.4 122.8 700.6 121.5 698.9 120C696.3 117.7 694 115.2 691.9 112.5C691.3 111.6 690 112.4 690.6 113.2Z" fill="#161616"/>
<path d="M688.5 123.6C691.5 127.7 697.2 133.5 702.8 131.8C703.7 131.5 703.3 130.1 702.4 130.4C697.6 131.9 692.3 126.4 689.8 122.9C689.2 122.1 687.9 122.8 688.5 123.6Z" fill="#161616"/>
<path d="M684.1 130.6C687.4 135.1 692.2 137.7 697.8 138C698.8 138.1 698.8 136.6 697.8 136.5C692.8 136.2 688.4 133.8 685.4 129.8C684.8 129 683.5 129.8 684.1 130.6Z" fill="#161616"/>
<path d="M680.9 139.6C685.6 144.5 693.4 144.6 698.1 139.6C698.8 138.9 697.7 137.8 697 138.5C692.9 142.9 686.1 142.8 682 138.5C681.3 137.8 680.2 138.9 680.9 139.6Z" fill="#161616"/>
<path d="M681.9 104.8C693 112.1 701 124.4 714.9 126.8C715.8 127 716.3 125.5 715.3 125.4C701.6 123.1 693.6 110.8 682.7 103.6C681.8 102.9 681.1 104.2 681.9 104.8Z" fill="#161616"/>
<path opacity="0.2" d="M680.701 137.5C677.101 132.6 680.1 122.1 688.8 112.2C698.6 117.9 708.3 123.7 718.1 129.4C716.3 129.4 700.501 129.6 699.401 134.5C699.201 135.3 699.401 136.5 700.901 138.2C705.901 140.6 714.3 143.8 725.1 144.1C730.7 144.2 735.601 143.5 739.401 142.6C759.801 163.2 795.7 194.3 848.5 216.9C894.9 236.7 936.5 242.4 964 244C963.1 255.8 962.201 267.5 961.301 279.3C916.001 267.3 854.6 244.5 793.6 198.7C772.8 183.1 755 167 739.8 151.5C725.8 153.8 717.1 151.4 711.6 148.6C706.9 146.2 703.901 143.2 697.701 142.7C693.601 142.4 690.1 143.4 685.6 141.2C685.1 141 682.201 139.5 680.701 137.5Z" fill="#6D6C6C"/>
<path opacity="0.14" d="M809.5 208.1C823.5 215.6 839.7 223.2 858.2 229.7C898.5 244 935 248.5 962.9 249.5C962.5 259.7 962.2 270 961.8 280.2C932.8 273.4 896.4 261.5 857.8 239.9C839.3 229.6 823.3 218.7 809.5 208.1Z" fill="#6D6C6C"/>
<path d="M967.6 236.6C961.9 249.5 961.6 260.2 961.1 279.4C960.7 293.9 961.7 309.5 969.5 350.5C979 400.1 983.5 408.1 985 434.4C986.2 455 984.6 471.9 983.1 483.1C995.7 490 1016.8 499.4 1044.4 501.5C1093.2 505.2 1129.3 483.7 1141.7 475.5C1143.2 444.1 1144.7 412.6 1146.3 381.2C1140.8 354.4 1134.3 333.4 1129.6 319.6C1114.8 276.1 1101 255.5 1109.8 233.7C1114.7 221.6 1124.4 214.2 1131.1 210.1C1126.4 206.5 1077.1 170 1023.3 188.9C1017.7 190.8 982.3 203.3 967.6 236.6Z" fill="white" stroke="#161616" stroke-width="2" stroke-miterlimit="10"/>
<path opacity="0.19" d="M1023.1 188.8C1038.1 212.8 1046.5 234 1051.3 248.8C1051.3 248.8 1074.8 320.2 1057.6 416C1053.9 436.4 1047.3 465.4 1034.3 498.6C1039.3 499.7 1045.3 500.6 1052.1 500.9C1052.1 500.9 1062.6 501.4 1074.4 499.9C1088.8 498 1113.5 490.3 1142.6 475.5C1143.1 442 1143.6 408.6 1144.1 375.1C1136.7 346.8 1129.2 324.1 1123.6 308.2C1110.1 270.3 1100.6 252.5 1108.4 233.7C1113.5 221.4 1123.9 213.8 1132 209.4C1121.4 202.4 1101.8 191.5 1075 187.3C1052.9 183.9 1034.7 186.3 1023.1 188.8Z" fill="#6D6C6C"/>
<path opacity="0.11" d="M1036.8 186.5C1052.9 206.3 1071.7 235.2 1083.3 273.3C1116.2 382.1 1062.1 477.5 1049.6 498.4C1060.1 498.3 1072.4 497.4 1085.8 494.8C1109.7 490.2 1128.8 482 1142.5 474.7C1143 443.5 1143.5 412.3 1144 381.2C1135.5 352.3 1127.5 324.9 1116.6 287.7C1109.2 262.2 1103.4 241.3 1114.3 224.6C1119.6 216.5 1127 212 1132.6 209.4C1100.7 201.7 1068.7 194.1 1036.8 186.5Z" fill="#6D6C6C"/>
<path d="M1029.4 390.8C1029.1 369.4 1028.9 348.1 1028.6 326.7C1079.9 324.1 1131.2 321.5 1182.6 318.9C1184.4 338.7 1186.2 358.5 1188.1 378.3C1135.2 382.5 1082.3 386.6 1029.4 390.8Z" fill="white" stroke="#161616" stroke-width="2" stroke-miterlimit="10"/>
<path d="M1013.8 383.8C1013.8 376 1013.8 368.2 1013.8 360.4C1079.7 355.5 1145.6 350.5 1211.5 345.6C1212 355.2 1212.5 364.9 1213.1 374.5C1146.7 377.5 1080.2 380.7 1013.8 383.8Z" fill="white" stroke="#161616" stroke-width="2" stroke-miterlimit="10"/>
<path d="M1019.3 348.6C1020.1 360.1 1020.9 371.5 1021.6 383C1082.6 378.1 1143.5 373.1 1204.5 368.2C1205 357.8 1205.5 347.4 1206.1 336.9C1143.8 340.8 1081.5 344.7 1019.3 348.6Z" fill="white" stroke="#161616" stroke-width="2" stroke-miterlimit="10"/>
<path d="M1004.4 374.4C1006.2 420 1008 465.6 1009.9 511.2C1077.9 503.6 1145.9 496.1 1213.9 488.5C1216 443.7 1218.1 398.9 1220.2 354.1C1148.2 360.9 1076.3 367.6 1004.4 374.4Z" fill="white" stroke="#161616" stroke-width="2" stroke-miterlimit="10"/>
<path d="M1016 392.2C1046.9 388.1 1077.8 385.2 1108.9 383.4C1110.3 383.3 1110.3 381.1 1108.9 381.1C1077.8 382.9 1046.8 385.8 1016 389.9C1014.6 390.1 1014.6 392.4 1016 392.2Z" fill="#161616"/>
<path d="M1050.5 398.3C1074.2 395.3 1097.9 392.2 1121.7 389.2C1123.1 389 1123.1 386.8 1121.7 386.9C1098 389.9 1074.3 393 1050.5 396C1049.1 396.3 1049.1 398.5 1050.5 398.3Z" fill="#161616"/>
<path d="M1164.4 462.3C1164 468.6 1164 475 1164.6 481.3C1164.7 482.7 1167 482.7 1166.9 481.3C1166.3 475 1166.2 468.6 1166.7 462.3C1166.8 460.9 1164.5 460.9 1164.4 462.3Z" fill="#161616"/>
<path d="M1165.4 462.5C1177.8 462.8 1190.1 462.1 1202.4 460.5C1202 460.1 1201.6 459.7 1201.3 459.4C1201.1 465.2 1201.3 470.9 1201.7 476.6C1201.8 478 1204.1 478 1204 476.6C1203.5 470.9 1203.4 465.1 1203.6 459.4C1203.6 458.8 1203.1 458.2 1202.5 458.3C1190.2 459.9 1177.9 460.5 1165.5 460.3C1163.9 460.2 1163.9 462.4 1165.4 462.5Z" fill="#161616"/>
<path d="M1166.3 483.1C1178.6 483.3 1190.7 482 1202.7 479.3C1204.1 479 1203.5 476.8 1202.1 477.1C1190.3 479.7 1178.4 481 1166.3 480.8C1164.9 480.8 1164.9 483 1166.3 483.1Z" fill="#161616"/>
<path d="M1171 469.5C1178.6 470 1186.1 469.6 1193.7 468.4C1195.1 468.2 1194.5 466 1193.1 466.2C1185.8 467.4 1178.4 467.7 1171 467.2C1169.6 467.1 1169.6 469.4 1171 469.5Z" fill="#161616"/>
<path d="M1175.8 475.8C1183.7 475.6 1191.3 474.1 1198.8 471.4C1200.1 470.9 1199.6 468.7 1198.2 469.2C1191 471.9 1183.5 473.3 1175.8 473.6C1174.4 473.5 1174.3 475.8 1175.8 475.8Z" fill="#161616"/>
<path opacity="0.2" d="M1036.7 506C1038.5 463.8 1040.3 421.6 1042 379.3C1100.4 374.6 1158.9 370 1217.3 365.3C1216 405.3 1214.6 445.3 1213.3 485.3C1154.4 492.2 1095.6 499.1 1036.7 506Z" fill="#6D6C6C"/>
<path opacity="0.2" d="M1195.3 338C1195.6 349.6 1195 363.4 1192 378.7C1184.6 416.3 1166.8 443.4 1154.7 458.7C1162.9 469.6 1171.1 480.5 1179.4 491.4C1154.3 494.3 1129.2 497.2 1104.1 500.1C1108.1 454.3 1112.1 408.5 1116.1 362.8C1114.8 356.8 1113.4 350.8 1112.1 344.8C1139.8 342.4 1167.6 340.2 1195.3 338Z" fill="#6D6C6C"/>
<path d="M1125.7 207.4C1146.6 204.6 1171.5 252.6 1181.4 287.1C1192.8 326.8 1187.8 361.1 1183.7 379.2C1175.7 414.7 1159.1 439.7 1148.7 453.2C1150.3 458.5 1154 472.9 1147.9 488.7C1138.9 511.8 1114.5 522.9 1112.6 520.8C1112 520.1 1113.2 517.2 1122.7 506.3C1120.7 508.4 1106.3 522.7 1090.1 519.3C1087.3 518.7 1083.8 518 1081.8 515.2C1077.1 508.4 1084.9 493 1101.5 475.9C1083.4 480.4 1078.6 479.2 1077.7 477.2C1075.4 472.4 1093.9 458.8 1100.6 453.8C1110.5 446.5 1119.4 441.5 1125.5 438.4C1142.6 402.9 1141.7 375.2 1140.2 362.2C1138 343 1130.8 322.1 1129.4 318.1C1125.4 306.6 1123.5 304 1115.5 283.3C1102.6 250.1 1102.6 244.4 1103.1 240C1104.9 226.8 1113.8 209 1125.7 207.4Z" fill="white" stroke="#161616" stroke-width="2" stroke-miterlimit="10"/>
<path d="M1082.2 512.4C1093.3 506.1 1103 498 1111.1 488.2C1112.3 486.7 1110.2 484.6 1109 486.1C1101.1 495.7 1091.6 503.7 1080.7 509.9C1079 510.7 1080.5 513.3 1082.2 512.4Z" fill="#161616"/>
<path d="M1092 519.1C1103 513.4 1112.4 505.5 1120 495.7C1121.2 494.2 1118.6 492.7 1117.4 494.2C1110.2 503.6 1101 511.1 1090.5 516.5C1088.8 517.4 1090.3 520 1092 519.1Z" fill="#161616"/>
<path opacity="0.17" d="M1117.3 212.2C1097.4 229.5 1178.6 305.4 1164.7 391.6C1155.2 450.7 1115.8 489.3 1115.8 489.3C1104.8 500.3 1084.1 513.8 1086.6 518.5C1088.4 521.9 1100.9 518.8 1105.4 517.4C1113.9 514.8 1119.8 510.4 1123.1 507.5C1118.1 513.1 1112.4 520 1113.6 521.4C1115.3 523.2 1129.5 515.8 1138.4 505.4C1153.8 487.4 1151.6 462.4 1150.1 452.2C1153.7 447.5 1158.4 440.9 1163.2 432.5C1167.6 425 1180.3 401.6 1185.8 369.8C1195.5 313.5 1175.6 269.1 1167.6 251.7C1160.4 236.2 1148.2 210.5 1129.7 209.4C1127.3 209.1 1121.2 208.8 1117.3 212.2Z" fill="#6D6C6C"/>
<path opacity="0.22" d="M1184.7 368.2C1179.3 383.9 1172.9 400.4 1165.3 417.7C1159.9 430 1154.4 441.5 1148.8 452.4C1146 461.4 1140.7 474.9 1130.2 488.8C1119.2 503.4 1107.1 512.3 1099 517.4C1101.3 517.5 1104.1 517.3 1107.2 516.5C1115 514.7 1120.2 510.4 1122.8 507.8C1119.8 511.6 1116.7 515.3 1113.7 519.1C1116.1 518.7 1119.9 518 1124.1 516.1C1146.1 506.2 1150.7 479.3 1151 477.5C1151.8 472.6 1152.3 464.2 1149.3 453.8C1156.5 445.3 1165.6 432.6 1172.9 415.5C1181 396.7 1183.7 379.8 1184.7 368.2Z" fill="#6D6C6C"/>
<path d="M944.6 141.6C928.5 160 939.6 185.7 941.1 189.2C946.7 202.2 961.2 220.7 979.6 219.2C993 218 1001.5 206.7 1003.6 203.7C1018.4 182.4 1013.5 141.7 988.5 131.2C974.7 125.4 955.7 128.8 944.6 141.6Z" fill="#262626"/>
<path d="M985.2 158C985.9 165.9 994.2 167.6 999.8 180.6C1003.8 190 1003.8 199.2 1003.1 205.8C1009.6 206.4 1021.6 206.7 1035.2 201.5C1045.9 197.4 1053.4 191.5 1057.9 187.4C1055.8 182.7 1052.7 175.8 1049 167.6C1033 132.7 1030.4 129.7 1026.5 128.2C1010.9 122.3 983.9 143.3 985.2 158Z" fill="white" stroke="#161616" stroke-width="2" stroke-miterlimit="10"/>
<path d="M927.6 54.6999C924.2 59.4999 922.1 65.3999 921.8 90.6999C921.6 112.3 922.8 132 924.8 149.5C929.3 146.9 933.8 144.3 938.3 141.7C940.3 146.6 943.7 153.3 949.5 159.8C961 172.7 975 177.1 981.2 178.7C987.7 177.1 1003.9 172.1 1016.2 156.8C1024.3 146.6 1026.9 136.5 1027.5 134.2C1031.2 119.1 1027.6 106.6 1025.7 101.4C1028.1 100.3 1031.8 98.1999 1034.6 94.3999C1040.5 86.3999 1042.1 72.0999 1034.8 67.2999C1029.4 63.6999 1019.8 65.7999 1012.6 73.1999C1011 69.4999 1008.5 64.3999 1004.5 59.0999C1003.5 57.7999 996 47.9999 986.8 42.8999C969.1 32.6999 939.8 37.4999 927.6 54.6999Z" fill="white" stroke="#161616" stroke-width="2" stroke-miterlimit="10"/>
<path d="M920.3 86.1C916.3 85.4 908.9 83.3 905.4 77.2C899.4 66.9 908.2 51.2 910.4 47.3C912.2 44 917 36.1 937.4 21.8C952.9 10.9 960.699 5.49997 969.099 2.89997C998.9 -6.00003 1026.2 9.39997 1031.3 12.3C1042 18.4 1048.8 25 1054.2 30.2C1062.5 38.2 1071.8 47.4 1082.2 58C1108.9 92.6 1118.3 124.2 1122.1 143.1C1126.4 164.5 1130.8 186.3 1118 199.1C1105.2 211.9 1081.8 209.3 1067.5 203.2C1047.6 194.7 1039.1 176.7 1032.5 162.8C1021.3 139 1020.6 116.2 1021.7 101.4C1031.7 98.5 1036.8 89.1 1034.5 82C1032.7 76.4 1026 70.8 1019.1 72.8C1013.8 74.3 1010 79.8 1010.3 86.2C1005.5 86.1 992.7 85 980.5 75.8C971.6 69.1 967.1 61.1 965 56.7C959.5 57.4 948.5 59.4 937.4 67.4C928.1 73.8 922.9 81.5 920.3 86.1Z" fill="#262626"/>
<path opacity="0.24" d="M986.5 105.2C998.5 119.7 1002.3 135 1002.3 135C1006.2 152.2 1000.6 166.8 998.1 172.7C1004.4 167.9 1010.8 163.1 1017.1 158.3C1021.5 172.9 1025.8 187.4 1030.2 202C1033.5 201.7 1040.3 200.5 1047.1 195.7C1052.3 192 1055.4 187.7 1057.1 185C1049 177.5 1033.5 160.9 1026.4 134.8C1023 122.2 1022.5 111 1022.9 102.6C1032 98.9 1036.7 90 1034.8 82.6C1033.4 77.2 1027.9 70.7 1020.8 71.7C1014.9 72.6 1010 78.4 1010.1 85.5C1005.6 85.5 995 85 983.9 78.3C972.4 71.4 966.9 61.8 964.8 57.7C965.3 76.9 971.2 88 976.5 94.6C980 99.1 981.6 99.3 986.5 105.2Z" fill="#6D6C6C"/>
<path d="M940 101C938.9 105 939 109.1 940.5 113C941 114.4 942.9 114.5 943.4 113C944.6 109.4 944.6 105.6 943.5 102C942.9 100.2 940 100.9 940.6 102.8C941.6 106 941.5 109.1 940.5 112.3C941.5 112.3 942.4 112.3 943.4 112.3C942.1 108.9 941.9 105.4 942.9 101.9C943.4 99.8999 940.6 99.0999 940 101Z" fill="#161616"/>
<path d="M936.4 94.8C939 93.2 942.2 93.5 944.4 95.6C945.8 96.9 947.9 94.8 946.5 93.5C943.4 90.5 938.6 89.8999 934.9 92.2C933.3 93.2 934.8 95.8 936.4 94.8Z" fill="#161616"/>
<path d="M947.199 120.2C949.099 120.2 949.099 117.2 947.199 117.2C945.199 117.2 945.199 120.2 947.199 120.2Z" fill="#161616"/>
<path d="M953.8 111.5C953.8 111.6 953.8 111.7 953.8 111.8C953.8 112.6 954.5 113.3 955.3 113.3C956.1 113.3 956.8 112.6 956.8 111.8C956.8 111.7 956.8 111.6 956.8 111.5C956.8 110.7 956.1 110 955.3 110C954.5 110 953.8 110.6 953.8 111.5Z" fill="#161616"/>
<path d="M954.1 119C956 119 956 116 954.1 116C952.2 116 952.2 119 954.1 119Z" fill="#161616"/>
<path d="M912.899 105.6C911.699 109.6 911.799 113.7 913.199 117.6C913.699 119 915.599 119 916.099 117.6C917.299 114 917.399 110.2 916.399 106.6C915.899 104.7 912.999 105.5 913.499 107.4C914.399 110.6 914.299 113.7 913.199 116.8C914.199 116.8 915.099 116.8 916.099 116.8C914.899 113.4 914.699 109.9 915.799 106.4C916.299 104.5 913.399 103.7 912.899 105.6Z" fill="#161616"/>
<path d="M911.199 98.1C913.299 97 916.199 97.5 917.599 99.4999C918.699 101 921.299 99.4999 920.199 98C917.699 94.7 913.399 93.6 909.699 95.5C907.999 96.4 909.499 99 911.199 98.1Z" fill="#161616"/>
<path d="M944.9 152.5C952.6 151.1 959.3 147 964.3 140.9C965.2 139.8 963.6 138.2 962.7 139.3C958 145.1 951.7 148.9 944.3 150.3C942.9 150.6 943.5 152.8 944.9 152.5Z" fill="#161616"/>
<path d="M960.5 139.5C962.3 140.1 963.8 141 965.1 142.3C966.1 143.3 967.7 141.7 966.7 140.7C965.1 139.1 963.2 138 961.1 137.3C959.7 136.9 959.1 139.1 960.5 139.5Z" fill="#161616"/>
<path opacity="0.45" d="M1022.8 8.69995C1035.5 26.3 1051.8 51.2 1067.3 83C1083.7 116.6 1095.7 141.9 1086.4 151.9C1074.1 165.2 1031.6 144.1 1024.8 140.6C1026.2 149.7 1029.7 164.2 1040 178.7C1045.2 186 1054.3 198.9 1071.1 204.9C1081.2 208.5 1090.2 208.3 1093.7 208C1098.4 207.7 1103.8 207.3 1109.7 204.1C1109.7 204.1 1117.4 200 1122.6 191.6C1130.5 178.8 1126.3 161.5 1120.7 139.8C1114 113.8 1105 96.4999 1096.2 79.3999C1094 75.1999 1091.4 70.3 1087.2 64.6C1083 58.8 1079.9 55.7 1066.9 43.2C1047.6 24.5 1044.6 21.8 1038.8 17.9C1032.4 13.5 1026.7 10.6 1022.8 8.69995Z" fill="#1C1C1C"/>
<path opacity="0.43" d="M998.7 178.8C999.5 181.1 1001.3 187.6 998.7 194.8C994.8 205.5 984 209.1 982.3 209.6C970 213.6 954.5 207.3 944.1 193.6C945.5 197.2 948.6 203.6 955 209.2C958.2 212 966.9 219.5 979.2 218.6C981.3 218.4 994.8 217.4 1001 205.7C1005.5 197.4 1004.5 187 998.7 178.8Z" fill="#1C1C1C"/>
</svg>
